<svg xmlns="http://www.w3.org/2000/svg" width="69" height="76" viewBox="0 0 69 76">
    <path fill="#F16824" fill-rule="evenodd" d="M24.941 0l2.835 2.835h6.658v2.834h7.845v23.172l.74-.406c3.337-1.829 7.54-1.232 10.225 1.451l5.173 5.173 6.464.002a3.73 3.73 0 0 1 2.652 1.097 3.729 3.729 0 0 1 1.097 2.654c0 1.003-.39 1.946-1.097 2.652L48.766 60.231c-3.115 3.115-8.203 3.344-11.583.525l-.35-.293-2.765 2.765h-4.009l-1.295 1.294v4.01l-3.372 3.371h-2.641v3.218h-8.678v-6.519l8.209-8.209H0V5.669h7.845V2.835h6.658L17.338 0h7.603zm5.882 54.447L15.908 69.362l-.001 3.924 5.009-.001v-3.216h3.716l2.297-2.298v-4.008l2.369-2.37h4.01l2.23-2.23-4.715-4.716zm16.343-25.236c-1.812 0-3.51.701-4.783 1.974L31.051 42.517a6.771 6.771 0 0 0 0 9.564l6.853 6.853a6.743 6.743 0 0 0 4.782 1.977 6.742 6.742 0 0 0 4.783-1.977L63.583 42.82 51.947 31.185a6.714 6.714 0 0 0-4.781-1.974zM7.845 7.504h-6.01v51.055h22.281l5.407-5.407-.293-.35c-2.384-2.858-2.639-7.038-.62-10.167l.497-.772H17.399l1.835-1.835h11.71l9.501-9.5V7.504h-6.011v2.834H7.845V7.504zm37.316 27.54c.75 0 1.5.284 2.07.855l6.854 6.854a2.934 2.934 0 0 1 0 4.142L50.77 50.21a2.879 2.879 0 0 1-1.61.813l-.362.056-.056.361a2.903 2.903 0 0 1-.816 1.614l-3.314 3.315a2.934 2.934 0 0 1-4.142 0l-6.853-6.854a2.904 2.904 0 0 1-.85-2.07c0-.788.301-1.523.85-2.072l3.314-3.314a2.889 2.889 0 0 1 1.612-.814l.362-.056.056-.36a2.887 2.887 0 0 1 .815-1.613L43.09 35.9a2.92 2.92 0 0 1 2.071-.856zm-5.384 8.313c-.399-.4-1.152-.399-1.548 0l-3.316 3.313a1.111 1.111 0 0 0 .001 1.547l6.854 6.853c.21.21.491.315.773.315.283 0 .564-.105.774-.315l3.315-3.314a1.112 1.112 0 0 0 0-1.547zm6.157-6.16a1.11 1.11 0 0 0-1.547 0l-3.314 3.315a1.109 1.109 0 0 0 0 1.545l6.852 6.854c.2.2.482.315.775.315.293 0 .575-.115.773-.314l3.312-3.313c.201-.2.317-.482.317-.775 0-.293-.116-.575-.315-.773zM8.333 35.685l3.75 3.752 2.244-2.52 1.298 1.297-3.442 3.442-4.338-4.34.488-1.631zm51.916 1.209l4.632 4.627 1.355-1.354a1.92 1.92 0 0 0 .001-2.711 1.902 1.902 0 0 0-1.356-.56l-4.632-.002zM34.434 29.52v1.835H17.399l1.835-1.835h15.2zM8.333 25.384l3.75 3.75 2.244-2.518 1.298 1.297-3.442 3.442-4.338-4.34.488-1.631zm0-10.509l3.75 3.752 2.244-2.52 1.298 1.297-3.442 3.442-4.338-4.34.488-1.63zm26.1 4.137v1.835H17.4l1.835-1.835h15.2zM24.182 1.835h-6.083l-2.834 2.834H9.679v3.835H32.6V4.669h-5.584l-2.835-2.834z"/>
</svg>
