<svg xmlns="http://www.w3.org/2000/svg" width="74" height="72" viewBox="0 0 74 72">
    <path fill="#F16824" fill-rule="evenodd" d="M28.73 16.328c-.031-1.148.41-1.85.785-2.234.543-.558 1.325-.86 2.328-.897 2.637-2.791 5.985-4.326 9.45-4.326 3.463 0 6.81 1.535 9.449 4.325 1.003.039 1.786.34 2.329.898.375.385.815 1.086.785 2.234l.003.117c.023.445.086 1.63-.74 2.5-.49.517-1.195.817-2.1.896v3.39c0 5.364-4.362 9.727-9.726 9.727-5.365 0-9.73-4.363-9.73-9.727v-3.39c-.903-.08-1.607-.38-2.097-.895-.826-.87-.763-2.056-.74-2.501l.004-.117zm22.29 21.35l-9.727 8.849-9.73-8.85v-8.05l.884 1.047a11.546 11.546 0 0 0 8.846 4.119 11.54 11.54 0 0 0 8.844-4.12l.883-1.047v8.052zM33.273 5.588c.52-2.385 1.728-3.753 3.31-3.753H46c2.25 0 3.065 2.626 3.31 3.754l1.025 4.698-1.04-.71c-4.87-3.325-11.141-3.324-16.01 0l-1.037.71 1.024-4.698zM21.28 55.822c-1.182 1.769-3.996 2.482-6.01 2.863l-.786.15c-1.411 1.61-2.77 3.31-4.085 4.956-1.353 1.692-2.751 3.44-4.21 5.1l-.234.265-.33-.132c-3.695-1.49-3.764-6.69-3.765-6.91l-.002-.265.357-.243c3.748-2.547 7.62-5.178 11.814-6.213l.207-1.065c.155-.806.207-1.605.262-2.452.017-.273.035-.545.056-.818.056-.713.138-1.527.417-2.167.204-.47.505-.793.974-1.052.579-.322 1.365-.757 2.07-.882 1.14-.206 2.93.3 3.837.724l.147.068.079.142c.8 1.443.154 6.504-.798 7.93zM2.33 58.27c.909-4.532 2.404-9.661 7.142-16.431 1.144-1.635 2.713-3.026 4.537-4.023l.74-.404v8.997l-.202.15c-1.626 1.21-1.748 3.129-1.877 5.16-.047.757-.097 1.54-.236 2.258l-.055.283-.853.295c-1.863.634-4.415 1.503-8.425 4.228l-1.012.689.24-1.201zm14.253-27.095l3.834-1.917v16.066l-.592-.111c-1.031-.194-1.81-.18-2.606.047l-.636.18V31.176zm50.119 5.436c-2.233-1.89-6.944-3.668-9.578-4.487l-4.27 3.884V21.303l.287-.136c1.729-.816 2.634-2.526 2.549-4.818.033-2.183-1.034-3.847-2.927-4.591l-.25-.098-1.41-6.462C50.839 3.978 49.684 0 46.002 0h-9.418C32.9 0 31.747 3.979 31.48 5.198l-1.41 6.462-.248.098c-1.893.744-2.96 2.408-2.928 4.565-.086 2.318.82 4.029 2.549 4.844l.286.136V36.01l-4.27-3.886-3.21.97v-2.15l2.837-2.835v-5.255l-1.836-1.835v4.772l-6.267 3.134-3.235-3.236v-4.67l-1.835 1.835v5.255l2.835 2.835v4.489l-.302.13c-2.636 1.14-4.875 2.945-6.475 5.22-2.91 3.742-9.244 15.912-7.746 23.939.485 2.597 1.765 4.535 3.805 5.76 2.2 1.324 2.99.362 4.299-1.227.15-.184.305-.371.464-.558.996-1.167 2.01-2.458 2.993-3.705.692-.88 1.383-1.758 2.074-2.604l.888-1.086v7.826h1.834v-8.84l.38-.092c1.059-.258 1.958-.555 2.75-.91l.704-.315v10.157h1.834V57.546l.123-.141c1.313-1.517 2.379-6.217 1.713-9.128-.274-1.2-.791-1.97-1.534-2.292l-.302-.13V35.012l2.744-.831 15.38 13.994v20.953h1.834V48.175l2.072-1.886L57.589 34.18l.272.082c2.1.634 5.933 2.294 7.662 3.762 2.955 2.505 4.875 7.957 5.706 16.204.309 3.048.463 6.324.484 10.308.008 1.337-.006 3.08-.022 4.59h1.834c.11-8.92.203-26.566-6.823-32.515z"/>
</svg>
