<svg xmlns="http://www.w3.org/2000/svg" width="42" height="42" viewBox="0 0 42 42">
    <path fill="#FFF" fill-rule="nonzero" stroke="#FFF" d="M21 1C9.96 1 1 9.96 1 21s8.96 20 20 20 20-8.96 20-20S32.04 1 21 1zm0 .93c10.537 0 19.07 8.533 19.07 19.07S31.537 40.07 21 40.07 1.93 31.537 1.93 21 10.463 1.93 21 1.93zm-6.064 9.768a.465.465 0 0 0-.378.465v17.674a.465.465 0 0 0 .698.407l15.814-8.837a.465.465 0 0 0 .232-.465.465.465 0 0 0-.232-.349l-15.814-8.837a.465.465 0 0 0-.32-.058zm.552 1.25L29.892 21l-14.404 8.052V12.948z"/>
</svg>
