<svg xmlns="http://www.w3.org/2000/svg" xmlns:xlink="http://www.w3.org/1999/xlink" width="23" height="23" viewBox="0 0 23 23">
    <defs>
        <path id="a" d="M11.5 2.277c3.004 0 3.36.011 4.546.065 1.28.059 2.468.316 3.382 1.23.915.914 1.171 2.101 1.23 3.382.054 1.186.065 1.542.065 4.546 0 3.004-.011 3.36-.066 4.546-.058 1.28-.314 2.468-1.229 3.382-.914.915-2.101 1.171-3.382 1.23-1.186.054-1.542.065-4.546.065-3.004 0-3.36-.011-4.546-.066-1.28-.058-2.468-.314-3.382-1.229-.914-.914-1.171-2.101-1.23-3.382-.054-1.186-.065-1.542-.065-4.546 0-3.004.011-3.36.065-4.546.059-1.28.316-2.468 1.23-3.382.914-.914 2.101-1.171 3.382-1.23 1.186-.054 1.542-.065 4.546-.065zM12.62.25c2.057.003 2.484.02 3.519.067 1.828.083 3.434.531 4.723 1.82 1.289 1.29 1.737 2.895 1.82 4.723.055 1.2.068 1.584.068 4.639s-.013 3.439-.067 4.639c-.084 1.828-.532 3.434-1.821 4.723-1.29 1.289-2.895 1.737-4.723 1.82-1.2.055-1.584.068-4.639.068s-3.439-.013-4.639-.067c-1.828-.084-3.434-.532-4.723-1.821C.85 19.572.401 17.967.318 16.139.27 15.104.253 14.677.25 12.62v-2.242c.003-2.056.02-2.483.067-3.518.083-1.828.531-3.434 1.82-4.723C3.428.85 5.033.401 6.861.318 7.896.27 8.323.253 10.38.25zM11.5 5.723a5.777 5.777 0 1 0 0 11.554 5.777 5.777 0 0 0 0-11.554zm0 2.027a3.75 3.75 0 1 1 0 7.5 3.75 3.75 0 0 1 0-7.5zm6.006-3.606a1.35 1.35 0 1 0 0 2.7 1.35 1.35 0 0 0 0-2.7z"/>
    </defs>
    <use fill="#FFF" fill-rule="evenodd" style="mix-blend-mode:color" xlink:href="#a"/>
</svg>
