<svg xmlns="http://www.w3.org/2000/svg" xmlns:xlink="http://www.w3.org/1999/xlink" width="23" height="23" viewBox="0 0 23 23">
    <defs>
        <path id="a" d="M21.813.25H1.188C.625.25.25.625.25 1.188v20.625c0 .562.375.937.938.937h20.625c.562 0 .937-.375.937-.938V1.188c0-.562-.375-.937-.938-.937zM6.905 19.469H3.625V8.687H7V19.47h-.094zM5.22 7.187c-1.032 0-1.969-.843-1.969-1.968 0-1.032.844-1.969 1.969-1.969 1.031 0 1.968.844 1.968 1.969S6.345 7.187 5.22 7.187zm14.25 12.282h-3.375v-5.25c0-1.219 0-2.813-1.688-2.813-1.781 0-1.969 1.313-1.969 2.719v5.344H9.063V8.687h3.187v1.5c.469-.843 1.5-1.687 3.188-1.687 3.374 0 4.03 2.25 4.03 5.156v5.813z"/>
    </defs>
    <use fill="#FFF" fill-rule="evenodd" style="mix-blend-mode:color" xlink:href="#a"/>
</svg>
