<svg xmlns="http://www.w3.org/2000/svg" xmlns:xlink="http://www.w3.org/1999/xlink" width="77" height="30" viewBox="0 0 77 30">
    <defs>
        <path id="a" d="M.112.069h72.813v11.896H.112z"/>
        <path id="c" d="M0 30h77V0H0z"/>
    </defs>
    <g fill="none" fill-rule="evenodd">
        <g transform="translate(3)">
            <mask id="b" fill="#fff">
                <use xlink:href="#a"/>
            </mask>
            <path fill="#010202" d="M70.052.069c2.096.018 3.27 1.509 2.75 3.65-.836 3.277-1.671 6.55-2.105 8.246L.112 11.961l1.952-7.215C2.722 2.149 5.273.055 7.778.069h62.274" mask="url(#b)"/>
        </g>
        <path fill="#010202" d="M2.373 16L73 16.013l-1.891 7.326c-.65 2.542-3.409 4.676-5.955 4.661H2.874C.775 27.982-.4 26.488.123 24.346c.885-3.283 1.775-6.591 2.249-8.346"/>
        <mask id="d" fill="#fff">
            <use xlink:href="#c"/>
        </mask>
        <path fill="#255EA6" d="M3 28.002h62v-.004H3z" mask="url(#d)"/>
        <path fill="#010202" d="M12 17h52v-3H12zM12 14h52v-3H12z" mask="url(#d)"/>
        <path fill="#FEFEFE" d="M22.757 12.216h-5.97l.6-2.386h5.973l-.603 2.386zM29.055 8.1c.009-.603-.148-1.125-.493-1.674-.611-.988-1.394-1.4-2.696-1.4h-7.71C17.994 5 17.831 5 17.641 5c-1.14 0-2.666.438-3.82 1.536-1.21 1.125-1.836 3.402-1.922 3.705l-.51 1.973H2.985L2 16.032h8.404l-1.793 6.94h5.374l1.801-6.942h5.944l-1.773 6.943h5.347l3.602-13.858c.114-.383.145-.713.15-1.015zm17.67 6.394c.008-.686-.23-1.18-.712-1.674-.617-.576-2.082-.604-2.571-.604h-8.17l.6-2.386h11.185l1.258-4.804H35.936c-1.276 0-2.227.056-3.35.906-.795.604-1.265 1.18-1.63 2.085l-1.144 4.446c-.086.357-.144.631-.148.933-.009.686.228 1.263.71 1.756.56.714 1.209 1.016 2.24 1.016h8.415l-.628 2.36H28.24l-1.145 4.445h13.138c.38 0 .732.027 1.085.027.869 0 1.63-.082 2.48-.74.85-.687 1.349-1.4 1.718-2.69l1.06-4.17a2.99 2.99 0 0 0 .148-.906zm13.709-2.278h-5.971l.601-2.386h5.972l-.602 2.386zm5.343-.002l.806-3.099c.113-.383.144-.713.149-1.015.008-.603-.149-1.125-.493-1.674-.612-.988-1.393-1.4-2.697-1.4h-7.71C55.672 5 55.508 5 55.319 5c-1.14 0-2.666.438-3.821 1.536-1.209 1.125-1.836 3.402-1.922 3.705l-3.288 12.732h5.374l1.802-6.943h5.944l-1.773 6.943h5.346l1.805-6.94h8.274L74 12.215l-8.223-.002z" mask="url(#d)"/>
        <path fill="#010202" d="M74.546 27.875h.439c.329 0 .663-.015.663-.405 0-.292-.264-.368-.545-.368h-.557v.773zm-.282-1.054h.882c.524 0 .784.222.784.66 0 .438-.282.616-.578.67l.664 1.027h-.35l-.64-1.021h-.48v1.021h-.282v-2.357zm.737 2.898c.95 0 1.718-.768 1.718-1.72 0-.95-.768-1.718-1.718-1.718-.952 0-1.72.768-1.72 1.719 0 .951.768 1.72 1.72 1.72zM75 26c1.102 0 1.999.897 1.999 2 0 1.102-.897 2-2 2-1.102 0-2-.898-2-2 0-1.103.898-2 2-2z" mask="url(#d)"/>
    </g>
</svg>
