<svg xmlns="http://www.w3.org/2000/svg" width="123" height="29" viewBox="0 0 123 29">
    <g fill="#000" fill-rule="evenodd">
        <path d="M37.898 6.827c-1.281 0-2.057-.87-2.057-1.924C35.841 3.846 36.63 3 37.93 3c1.295 0 2.055.846 2.071 1.903 0 1.054-.773 1.924-2.084 1.924h-.018zM33 22.087c1.049-.078 1.831-.325 2.3-.809.541-.558.769-1.504.769-3.981v-9h3.722v9.958c0 2.493-.546 4.124-1.63 5.194C37.028 24.526 35.278 25 33.375 25L33 22.087zM44.198 20h3.582V8.354h-3.582V20zm1.778-13.132C44.75 6.868 44 5.996 44 4.923 44 3.855 44.757 3 46 3c1.248 0 1.983.855 2 1.923 0 1.073-.75 1.945-2.004 1.945h-.02zM50.643 20v-8.658H49V8.57h1.643v-.426c0-1.396.513-3.025 1.659-3.977C53.374 3.277 54.795 3 55.916 3c.851 0 1.516.1 2.084.237l-.09 2.84a5.101 5.101 0 0 0-1.329-.17c-1.334 0-1.912.926-1.912 2.069v.594h2.615v2.772h-2.573V20h-4.068"/>
        <path d="M58.645 20v-8.658H57V8.57h1.645v-.426c0-1.396.517-3.025 1.66-3.977C61.379 3.277 62.799 3 63.923 3c.848 0 1.515.1 2.078.237l-.083 2.84a5.142 5.142 0 0 0-1.331-.17c-1.336 0-1.909.926-1.909 2.069v.594h2.612v2.772h-2.574V20h-4.07"/>
        <path d="M67.474 9l2.048 5.63c.233.688.514 1.64.704 2.244h.093c.196-.641.42-1.573.628-2.262L72.633 9H77l-2.968 7.253c-2.155 5.456-3.458 7.172-4.869 8.232A7.412 7.412 0 0 1 65.18 26l-.76-3.18c.462-.051 1.06-.222 1.676-.503.628-.253 1.365-.873 1.762-1.473.139-.18.228-.384.228-.532 0-.138-.029-.322-.197-.66L63 9h4.474M80 20h2V3h-2zM94.902 17.52c0 1.23.042 2.286.098 3.214h-1.888l-.116-1.92h-.06c-.541.945-1.782 2.186-3.89 2.186C87.21 21 85 19.973 85 15.855V9h2.13v6.481c0 2.237.692 3.757 2.625 3.757 1.43 0 2.435-.996 2.829-1.96a3.33 3.33 0 0 0 .192-1.092V9h2.126v8.52M99.175 15.17c0 .257.03.516.084.749.395 1.444 1.628 2.428 3.139 2.428 2.203 0 3.495-1.763 3.495-4.38 0-2.294-1.198-4.26-3.433-4.26-1.417 0-2.748.988-3.164 2.55-.068.256-.12.54-.12.864v2.05zM97.091 3h2.084v7.17h.048c.732-1.283 2.064-2.09 3.92-2.09 2.855 0 4.87 2.352 4.857 5.805 0 4.09-2.616 6.115-5.176 6.115-1.663 0-2.992-.648-3.858-2.132h-.056l-.106 1.873H97c.053-.781.09-1.927.09-2.938V3zM117.011 12.879c.024-1.316-.529-3.385-2.841-3.385-2.107 0-3.003 1.931-3.163 3.385h6.004zm-6.034 1.5c.045 2.828 1.812 3.993 3.88 3.993 1.478 0 2.376-.266 3.14-.59l.363 1.484c-.723.338-1.986.734-3.78.734-3.487 0-5.58-2.353-5.58-5.802C109 10.72 111.026 8 114.331 8c3.7 0 4.669 3.287 4.669 5.402 0 .437-.025.753-.072.978h-7.95zM15.381 5l-2.484 13.691c-.217 1.28-1.145 1.87-2.17 1.87a2.166 2.166 0 0 1-2.103-1.575H4C4.285 22.354 7.183 25 10.727 25c3.491 0 6.212-2.288 6.722-5.855L20 5h-4.619"/>
        <path d="M8.586 18a2.155 2.155 0 0 1 2.09-1.58H12.2L13 12h-2.323C7.157 12 4.279 14.64 4 18h4.586M19 15.568h2.383L20.854 18 27 13.378 22.724 9l-.474 2.18h-2.37L19 15.568"/>
        <path d="M14.5 0C6.503 0 0 6.506 0 14.5 0 22.495 6.504 29 14.5 29 22.494 29 29 22.495 29 14.5 29 6.506 22.495 0 14.5 0zm13.439 14.5c0 7.41-6.029 13.439-13.44 13.439-7.41 0-13.438-6.03-13.438-13.439C1.061 7.09 7.09 1.062 14.5 1.062c7.411 0 13.44 6.028 13.44 13.438zM120.056 10.663a.648.648 0 0 0 .381.127c.219 0 .347-.132.347-.33 0-.178-.088-.284-.312-.383-.27-.114-.438-.281-.438-.551 0-.302.214-.526.536-.526.167 0 .292.046.364.095l-.059.204a.552.552 0 0 0-.312-.092c-.226 0-.312.158-.312.29 0 .181.1.27.329.374.28.129.42.284.42.569 0 .298-.187.56-.577.56a.757.757 0 0 1-.423-.127l.056-.21M122.704 10.121c-.015-.278-.033-.616-.033-.863h-.005c-.07.232-.149.484-.247.76l-.347.97h-.192l-.32-.953a9.522 9.522 0 0 1-.223-.777h-.006c-.006.25-.02.581-.037.885l-.053.857H121l.137-2h.322l.335.968a9.2 9.2 0 0 1 .197.673h.006c.053-.202.122-.422.21-.673l.348-.968h.322l.123 2h-.25l-.046-.879"/>
    </g>
</svg>
