<svg xmlns="http://www.w3.org/2000/svg" xmlns:xlink="http://www.w3.org/1999/xlink" width="23" height="19" viewBox="0 0 23 19">
    <defs>
        <path id="a" d="M22.75 2.656c-.844.375-1.688.656-2.625.75.938-.562 1.688-1.5 2.063-2.531-.938.563-1.875.938-2.907 1.125A4.538 4.538 0 0 0 15.906.5a4.601 4.601 0 0 0-4.594 4.594c0 .375 0 .75.094 1.031A12.945 12.945 0 0 1 1.844 1.25c-.469.75-.657 1.5-.657 2.344 0 1.594.844 3 2.063 3.844-.75 0-1.5-.188-2.063-.563v.094c0 2.25 1.594 4.125 3.657 4.5-.375.094-.75.187-1.219.187-.281 0-.563 0-.844-.094.563 1.876 2.25 3.188 4.313 3.188-1.594 1.219-3.563 1.969-5.719 1.969-.375 0-.75 0-1.125-.094a13.123 13.123 0 0 0 7.031 2.063c8.532 0 13.125-7.032 13.125-13.125V5c.938-.656 1.688-1.5 2.344-2.344z"/>
    </defs>
    <use fill="#FFF" fill-rule="evenodd" style="mix-blend-mode:color" xlink:href="#a"/>
</svg>
