<svg xmlns="http://www.w3.org/2000/svg" width="66" height="56" viewBox="0 0 66 56">
    <path fill="#F16824" fill-rule="evenodd" d="M57.284 0v1.838h-2.85v3.787l.446.048C61.22 6.362 66 11.675 66 18.032c0 6.356-4.78 11.668-11.12 12.358l-.446.049V47.7c0 4.576-3.741 8.3-8.34 8.3s-8.34-3.724-8.34-8.3V34.886c0-2.72-2.222-4.932-4.952-4.932-2.731 0-4.952 2.212-4.952 4.932V49.32c0 3.684-3.011 6.68-6.712 6.68H6.713C3.011 56 0 53.004 0 49.32V12.279c0-3.683 3.011-6.68 6.713-6.68h14.425c3.701 0 6.712 2.997 6.712 6.68v17.87l.805-.62a6.748 6.748 0 0 1 4.147-1.413c3.751 0 6.803 3.037 6.803 6.77V47.7c0 3.564 2.911 6.462 6.489 6.462s6.489-2.898 6.489-6.462V30.44l-.446-.049c-6.339-.691-11.12-6.004-11.12-12.359 0-6.357 4.78-11.67 11.12-12.359l.446-.048V1.838h-2.85V0h7.551zM17.701 48.558v5.604h3.437c.337 0 .672-.035.994-.103l.902-.194-5.333-5.307zm-1.85-41.122H12v46.726h3.851V7.436zm-5.702 41.122l-5.336 5.31.905.191c.327.068.661.103.995.103h3.436v-5.604zm7.552-8.028v5.425l6.865 6.833.349-.429a4.834 4.834 0 0 0 1.084-3.039v-.528l-8.298-8.262zm-7.552 0l-8.298 8.261v.529c0 1.101.386 2.18 1.086 3.039l.349.428 6.863-6.832V40.53zm7.552-8.026v5.425l8.298 8.261v-5.425l-8.298-8.261zm-7.552 0l-8.298 8.26v5.425l8.298-8.26v-5.425zm7.552-8.027v5.425l8.298 8.262v-5.425l-8.298-8.262zm-7.552.001l-8.298 8.26v5.424l8.298-8.26v-5.424zm7.552-8.027v5.424l8.298 8.262v-5.424l-8.298-8.262zm-7.552 0l-8.298 8.261v5.424l8.298-8.26v-5.425zm43.359-9.014c-5.867 0-10.641 4.753-10.641 10.595 0 5.843 4.774 10.596 10.641 10.596 5.868 0 10.642-4.753 10.642-10.596 0-5.842-4.774-10.595-10.642-10.595zm-35.807.988v5.423l8.298 8.263v-5.426l-8.298-8.26zm-7.552 0l-8.298 8.26v5.424l8.298-8.26V8.425zm38.822 5.99l5.41 3.85c.113.056.215.128.3.214l.044.044a1.136 1.136 0 0 1-.038 1.58 1.16 1.16 0 0 1-1.631.003 1.565 1.565 0 0 1-.278-.398l-3.807-5.293zm4.481-4.795c4.46 0 8.128 3.449 8.45 7.807h-2.318a6.145 6.145 0 0 0-4.034-5.15l-3.553-2.534a8.694 8.694 0 0 1 1.455-.123zM21.138 7.437h-1.816l6.677 6.648v-1.806c0-2.67-2.18-4.842-4.861-4.842zm-12.611 0H6.713c-2.681 0-4.862 2.172-4.862 4.842v1.805l6.676-6.647z"/>
</svg>
