<svg xmlns="http://www.w3.org/2000/svg" width="64" height="34" viewBox="0 0 64 34">
    <path fill="#000" fill-rule="evenodd" d="M44.934 20.769L39.058 0H25.867v5.566C24.147 2.23 19.997.23 14.207.23 7.404.23 1.34 3.422 1.016 10.917h8.702c.277-2.314 1.944-3.468 4.212-3.468 1.897 0 3.793.783 3.793 2.915 0 3.05-3.192 3.327-5.737 3.327v5.693c2.312 0 6.015.324 6.015 3.61 0 1.896-1.482 3.793-4.303 3.793-3.007 0-4.628-1.808-4.628-4.812H0C0 29.978 5.599 34 13.188 34c5.91 0 10.372-1.796 12.679-5.273v4.583h9.813V22.023c0-2.685-.372-7.173-.695-10.087h.094l6.06 21.374h7.59l6.061-21.374h.094c-.415 3.839-.694 7.448-.694 11.194v10.18H64V0H50.812l-5.878 20.769zM26 18c-.778-.909-1.781-1.637-3-2.135 1.385-.711 2.365-1.676 3-2.865v5z"/>
</svg>
