<svg xmlns="http://www.w3.org/2000/svg" xmlns:xlink="http://www.w3.org/1999/xlink" width="146" height="29" viewBox="0 0 146 29">
    <defs>
        <path id="a" d="M0 .05h127.967v19.68H0z"/>
    </defs>
    <g fill="none" fill-rule="evenodd">
        <path fill="#010202" d="M132.479 29H146v-4h-13.521v4zm-18.54 0h14.523v-4h-14.524v4zm-18.663 0h14.525v-4H95.276v4zm-18.735 0h14.523v-4H76.54v4zM58 29h14.522v-4H58v4z"/>
        <g>
            <mask id="b" fill="#fff">
                <use xlink:href="#a"/>
            </mask>
            <path fill="#010202" d="M120.492 19.34h7.475l-5.124-9.93 4.173-8.535h-7.788l-2.068 5.874-2.496-5.874h-7.788l4.536 8.534-4.999 9.931h7.562l3.185-6.778 3.332 6.778zm-61.666-.028H66.3V7.682c0-1.489.649-2.083 1.355-2.083.713 0 1.299.707 1.299 2.006v11.706h7.473V7.68c0-1.488.648-2.082 1.36-2.082.71 0 1.295.707 1.295 2.006V19.31h7.476V6.903c0-4.945-2.255-6.8-5.374-6.8-1.763 0-3.617.701-4.883 3.379C75.349 1.177 73.619.103 71.24.103c-1.761 0-3.614.701-4.879 3.379h-.06L66.114.658h-7.29v18.654zM11.29 12.323c-.104 1.97-.744 2.54-1.694 2.54-1.845 0-1.998-2.126-1.998-4.974 0-3.004.179-4.973 2.075-4.973.9 0 1.666.415 1.771 2.54h6.716C18.132 1.963 14.185.048 9.52.048 3.264.05-.17 3.986.007 9.81c0 5.933 3.003 9.92 9.487 9.92 4.59 0 8.665-2.252 8.665-7.406h-6.87z" mask="url(#b)"/>
        </g>
        <path fill="#010202" d="M98.215 12.962c0 1.509-.46 2.504-1.949 2.504-1.309 0-1.985-.74-1.985-1.916 0-1.028.5-2.133 2.764-2.133h1.17v1.545zM97.484.358c-4.5 0-8.889 1.066-9.174 6.033h7.082c.108-1.544.675-1.911 1.738-1.911 1.202 0 1.663.551 1.663 1.47v1.914h-1.026c-6.659 0-10.203 1.875-10.203 6.436 0 3.643 2.551 5.63 6.166 5.63 1.947 0 3.824-.625 5.063-2.32l.213 1.767h7.509V6.906c.001-4.303-2.199-6.548-9.031-6.548zM26.292 11.772l1.617-7.04h.053l1.46 7.04h-3.13zM23.252.54l-5.925 18.696h7.026l.742-3.004h5.309l.715 3.004h7.591L32.76.54h-9.508zm23.726 7.397h-.61V4.423h.662c1.418 0 2.356.285 2.356 1.642 0 1.385-1.013 1.872-2.408 1.872zm6.119 1.726v-.05c2.74-.667 3.628-2.28 3.628-4.41 0-3.485-2.31-4.689-6.242-4.689H39.649v18.503h7.106v-6.582h.835c1.168 0 1.625.358 1.776 1.277.255 1.59-.017 1.16.644 5.303h7.108c-.35-3.37-.521-5.405-.925-6.995-.355-1.408-1.32-2.203-3.096-2.357zM129.94.604c-1.03 0-1.925.854-1.925 1.946 0 1.093.887 1.958 1.925 1.958 1.051 0 1.93-.865 1.93-1.958a1.936 1.936 0 0 0-1.93-1.946v.229c.96 0 1.698.794 1.698 1.716 0 .959-.759 1.729-1.698 1.729a1.714 1.714 0 0 1-1.705-1.723c0-.951.763-1.722 1.705-1.722V.604zm-.417 1.13h.449c.152 0 .408 0 .408.33 0 .32-.265.32-.408.32h-.449v-.65zm-.286 1.846h.286v-.948h.357c.34 0 .417.082.449.4.04.33.06.414.101.548h.295c-.072-.208-.091-.403-.12-.661-.031-.26-.105-.35-.317-.401.386-.115.386-.444.386-.506 0-.524-.551-.524-.703-.524h-.734V3.58z"/>
    </g>
</svg>
