<svg xmlns="http://www.w3.org/2000/svg" xmlns:xlink="http://www.w3.org/1999/xlink" width="23" height="17" viewBox="0 0 23 17">
    <defs>
        <path id="a" d="M22.563 4s-.188-1.594-.938-2.25c-.844-.938-1.781-.938-2.25-.938C16.187.625 11.5.625 11.5.625s-4.688 0-7.875.188c-.469.093-1.406.093-2.25.937C.719 2.406.437 4 .437 4S.25 5.781.25 7.656v1.688C.25 11.125.438 13 .438 13s.187 1.594.937 2.25c.844.938 1.969.844 2.438.938 1.78.187 7.687.187 7.687.187s4.688 0 7.875-.281c.469-.094 1.406-.094 2.25-.938.656-.656.938-2.25.938-2.25s.187-1.781.187-3.656V7.562c0-1.78-.188-3.562-.188-3.562zM9.155 11.406V5.125l6.094 3.188-6.094 3.093z"/>
    </defs>
    <use fill="#FFF" fill-rule="evenodd" style="mix-blend-mode:color" xlink:href="#a"/>
</svg>
